# xmcd
#
# Track frame offsets:
# 150
# 18502
# 30611
# 48131
# 62795
# 84639
# 113537
# 131537
# 163626
# 183682
# 210624
# 227031
# 243477
#
# Disc length: 3371 seconds
#
#
# Revision: 0
# Processed by: cddbd v1.5.1PL0 Copyright (c) Steve Scherf et al.
# Submitted via: FreeRIP 2.90 
#
DISCID=a90d290d
DTITLE=Lightnin'Hopkins - Lightnin's Boogie
DYEAR=1977
DGENRE=Blues
TTITLE0=trouble in mind
TTITLE1=mercy
TTITLE2=cook my breakfast
TTITLE3=it's hard to love a woman
TTITLE4=get up off O'yo'
TTITLE5=katie mae
TTITLE6=goin' to Louisiana
TTITLE7=forgot what to say
TTITLE8=lightnin's boogie
TTITLE9=I'm coming home
TTITLE10=early in the morning blues
TTITLE11=my babe
TTITLE12=rock me baby
EXTD=-
EXTT0=
EXTT1=
EXTT2=
EXTT3=
EXTT4=
EXTT5=
EXTT6=
EXTT7=
EXTT8=
EXTT9=
EXTT10=
EXTT11=
EXTT12=
PLAYORDER=
